<svg width="360" height="520" viewBox="0 0 360 520" fill="none" xmlns="http://www.w3.org/2000/svg">
<g clip-path="url(#clip0_43_234)">
<rect width="360" height="520" fill="#F65A83"/>
<path d="M-0.333336 419.586C37.1667 464.586 200.078 487.062 359.666 512.586V675.586H-0.333336C-0.333336 675.586 -37.8333 374.586 -0.333336 419.586Z" fill="#2B7A0B"/>
<path d="M-12 499C194 490 288.096 394.636 378.722 426.52C469.348 458.405 378.722 669 378.722 669H-12V499Z" fill="#5BB318"/>
<path d="M329.031 445.775C329.288 444.773 330.712 444.773 330.969 445.775L334.876 461.001C335.038 461.634 334.56 462.25 333.907 462.25H326.093C325.44 462.25 324.962 461.634 325.124 461.001L329.031 445.775Z" fill="#224B0C"/>
<rect x="329" y="460" width="2" height="10" rx="1" fill="#224B0C"/>
<path d="M335.031 450.775C335.288 449.773 336.712 449.773 336.969 450.775L340.876 466.001C341.038 466.634 340.56 467.25 339.907 467.25H332.093C331.44 467.25 330.962 466.634 331.124 466.001L335.031 450.775Z" fill="#224B0C"/>
<rect x="335" y="465" width="2" height="10" rx="1" fill="#224B0C"/>
<path d="M341.031 447.775C341.288 446.773 342.712 446.773 342.969 447.775L346.876 463.001C347.038 463.634 346.56 464.25 345.907 464.25H338.093C337.44 464.25 336.962 463.634 337.124 463.001L341.031 447.775Z" fill="#224B0C"/>
<rect x="341" y="462" width="2" height="10" rx="1" fill="#224B0C"/>
<path d="M12.0314 448.775C12.2885 447.773 13.7115 447.773 13.9686 448.775L17.8758 464.001C18.0381 464.634 17.5603 465.25 16.9072 465.25H9.09285C8.43971 465.25 7.96189 464.634 8.12423 464.001L12.0314 448.775Z" fill="#224B0C"/>
<rect x="12" y="463" width="2" height="10" rx="1" fill="#224B0C"/>
<path d="M18.0314 453.775C18.2885 452.773 19.7115 452.773 19.9686 453.775L23.8758 469.001C24.0381 469.634 23.5603 470.25 22.9072 470.25H15.0928C14.4397 470.25 13.9619 469.634 14.1242 469.001L18.0314 453.775Z" fill="#224B0C"/>
<rect x="18" y="468" width="2" height="10" rx="1" fill="#224B0C"/>
<path d="M24.0314 450.775C24.2885 449.773 25.7115 449.773 25.9686 450.775L29.8758 466.001C30.0381 466.634 29.5603 467.25 28.9072 467.25H21.0928C20.4397 467.25 19.9619 466.634 20.1242 466.001L24.0314 450.775Z" fill="#224B0C"/>
<rect x="24" y="465" width="2" height="10" rx="1" fill="#224B0C"/>
<path d="M58.0314 481.775C58.2885 480.773 59.7115 480.773 59.9686 481.775L63.8758 497.001C64.0381 497.634 63.5603 498.25 62.9072 498.25H55.0928C54.4397 498.25 53.9619 497.634 54.1242 497.001L58.0314 481.775Z" fill="#224B0C"/>
<rect x="58" y="496" width="2" height="10" rx="1" fill="#224B0C"/>
<path d="M64.0314 486.775C64.2885 485.773 65.7115 485.773 65.9686 486.775L69.8758 502.001C70.0381 502.634 69.5603 503.25 68.9072 503.25H61.0928C60.4397 503.25 59.9619 502.634 60.1242 502.001L64.0314 486.775Z" fill="#224B0C"/>
<rect x="64" y="501" width="2" height="10" rx="1" fill="#224B0C"/>
<path d="M70.0314 483.775C70.2885 482.773 71.7115 482.773 71.9686 483.775L75.8758 499.001C76.0381 499.634 75.5603 500.25 74.9072 500.25H67.0928C66.4397 500.25 65.9619 499.634 66.1242 499.001L70.0314 483.775Z" fill="#224B0C"/>
<rect x="70" y="498" width="2" height="10" rx="1" fill="#224B0C"/>
</g>
<defs>
<clipPath id="clip0_43_234">
<rect width="360" height="520" fill="white"/>
</clipPath>
</defs>
</svg>
