<svg width="18" height="18" viewBox="0 0 18 18" fill="none" xmlns="http://www.w3.org/2000/svg">
<path d="M17.85 5C17.85 8.41152 15.7422 11.0895 14.6293 12.3422C11.9348 14.8837 11.7742 15.0027 10.105 16.24C9.79662 16.4686 9.43679 16.7353 9 17.0625C8.56324 16.7354 8.20344 16.4687 7.8951 16.2401C6.22595 15.0028 6.06523 14.8837 3.37069 12.3422C2.25782 11.0895 0.15 8.41152 0.15 5C0.15 2.32142 2.32142 0.15 5 0.15C6.58643 0.15 7.99496 0.911531 8.88008 2.08961L9 2.24923L9.11992 2.08961C10.005 0.911531 11.4136 0.15 13 0.15C15.6786 0.15 17.85 2.32142 17.85 5Z" fill="#FF8D8D" stroke="#572626" stroke-width="0.3"/>
</svg>
